REM DIRINDEX 1\2,1\3,1\4,1\5
REM DIRNAME folder01,folder02,folder03,folder04,folder05
TITLE ""
FILE "P1Q_t_1272-1281.mp3" MP3
  TRACK 01 AUDIO
    TITLE "3:cjc005_4723"
    INDEX 01 00:00:00
  TRACK 02 AUDIO
    TITLE "0:"
    INDEX 01 00:01:11
  TRACK 03 AUDIO
    TITLE "4:cjc005_4724"
    INDEX 01 00:01:32
  TRACK 04 AUDIO
    TITLE "0:"
    INDEX 01 00:02:34
  TRACK 05 AUDIO
    TITLE "5:cjc005_4725"
    INDEX 01 00:02:59
  TRACK 06 AUDIO
    TITLE "0:"
    INDEX 01 00:06:61
  TRACK 07 AUDIO
    TITLE "3:cjc005_4726"
    INDEX 01 00:07:35
  TRACK 08 AUDIO
    TITLE "0:"
    INDEX 01 00:08:50
  TRACK 09 AUDIO
    TITLE "4:cjc005_4727"
    INDEX 01 00:09:02
  TRACK 10 AUDIO
    TITLE "0:"
    INDEX 01 00:10:23
  TRACK 11 AUDIO
    TITLE "5:cjc005_4728"
    INDEX 01 00:10:47
  TRACK 12 AUDIO
    TITLE "0:"
    INDEX 01 00:14:64
  TRACK 13 AUDIO
    TITLE "3:cjc005_4729"
    INDEX 01 00:15:40
  TRACK 14 AUDIO
    TITLE "0:"
    INDEX 01 00:16:49
  TRACK 15 AUDIO
    TITLE "4:cjc005_4730"
    INDEX 01 00:17:00
  TRACK 16 AUDIO
    TITLE "0:"
    INDEX 01 00:18:31
  TRACK 17 AUDIO
    TITLE "5:cjc005_4731"
    INDEX 01 00:18:52
  TRACK 18 AUDIO
    TITLE "0:"
    INDEX 01 00:22:19
  TRACK 19 AUDIO
    TITLE "3:cjc005_4732"
    INDEX 01 00:22:74
  TRACK 20 AUDIO
    TITLE "0:"
    INDEX 01 00:24:02
  TRACK 21 AUDIO
    TITLE "4:cjc005_4733"
    INDEX 01 00:24:24
  TRACK 22 AUDIO
    TITLE "0:"
    INDEX 01 00:25:25
  TRACK 23 AUDIO
    TITLE "5:cjc005_4734"
    INDEX 01 00:25:50
  TRACK 24 AUDIO
    TITLE "0:"
    INDEX 01 00:30:40
  TRACK 25 AUDIO
    TITLE "3:cjc005_4735"
    INDEX 01 00:31:18
  TRACK 26 AUDIO
    TITLE "0:"
    INDEX 01 00:32:19
  TRACK 27 AUDIO
    TITLE "4:cjc005_4736"
    INDEX 01 00:32:48
  TRACK 28 AUDIO
    TITLE "0:"
    INDEX 01 00:33:71
  TRACK 29 AUDIO
    TITLE "5:cjc005_4737"
    INDEX 01 00:34:16
  TRACK 30 AUDIO
    TITLE "0:"
    INDEX 01 00:36:38
  TRACK 31 AUDIO
    TITLE "3:cjc005_4738"
    INDEX 01 00:37:18
  TRACK 32 AUDIO
    TITLE "0:"
    INDEX 01 00:38:30
  TRACK 33 AUDIO
    TITLE "4:cjc005_4739"
    INDEX 01 00:38:53
  TRACK 34 AUDIO
    TITLE "0:"
    INDEX 01 00:40:13
  TRACK 35 AUDIO
    TITLE "5:cjc005_4740"
    INDEX 01 00:40:38
  TRACK 36 AUDIO
    TITLE "0:"
    INDEX 01 00:45:53
  TRACK 37 AUDIO
    TITLE "3:cjc005_4741"
    INDEX 01 00:46:29
  TRACK 38 AUDIO
    TITLE "0:"
    INDEX 01 00:47:52
  TRACK 39 AUDIO
    TITLE "4:cjc005_4742"
    INDEX 01 00:48:06
  TRACK 40 AUDIO
    TITLE "0:"
    INDEX 01 00:49:18
  TRACK 41 AUDIO
    TITLE "5:cjc005_4743"
    INDEX 01 00:49:41
  TRACK 42 AUDIO
    TITLE "0:"
    INDEX 01 00:53:11
  TRACK 43 AUDIO
    TITLE "3:cjc005_4744"
    INDEX 01 00:53:64
  TRACK 44 AUDIO
    TITLE "0:"
    INDEX 01 00:54:70
  TRACK 45 AUDIO
    TITLE "4:cjc005_4745"
    INDEX 01 00:55:26
  TRACK 46 AUDIO
    TITLE "0:"
    INDEX 01 00:56:37
  TRACK 47 AUDIO
    TITLE "5:cjc005_4746"
    INDEX 01 00:56:59
  TRACK 48 AUDIO
    TITLE "0:"
    INDEX 01 01:00:59
  TRACK 49 AUDIO
    TITLE "3:cjc005_4747"
    INDEX 01 01:01:34
  TRACK 50 AUDIO
    TITLE "0:"
    INDEX 01 01:02:46
  TRACK 51 AUDIO
    TITLE "4:cjc005_4748"
    INDEX 01 01:03:00
  TRACK 52 AUDIO
    TITLE "0:"
    INDEX 01 01:04:01
  TRACK 53 AUDIO
    TITLE "5:cjc005_4749"
    INDEX 01 01:04:29
  TRACK 54 AUDIO
    TITLE "0:"
    INDEX 01 01:08:13
  TRACK 55 AUDIO
    TITLE "3:cjc005_4750"
    INDEX 01 01:08:68
  TRACK 56 AUDIO
    TITLE "0:"
    INDEX 01 01:10:08
  TRACK 57 AUDIO
    TITLE "4:cjc005_4751"
    INDEX 01 01:10:30
  TRACK 58 AUDIO
    TITLE "0:"
    INDEX 01 01:11:43
  TRACK 59 AUDIO
    TITLE "5:cjc005_4752"
    INDEX 01 01:11:62
  TRACK 60 AUDIO
    TITLE "0:"
    INDEX 01 01:15:56
